<svg xmlns="http://www.w3.org/2000/svg" width="682.667" height="682.667" preserveAspectRatio="xMidYMid meet" version="1.0" viewBox="0 0 512 512"><g fill="#000" stroke="none"><path d="M2340 5109 c-599 -51 -1150 -309 -1581 -739 -207 -207 -340 -385 -465 -624 -416 -799 -385 -1756 83 -2520 205 -333 528 -655 858 -853 311 -187 618 -296 990 -349 171 -25 538 -25 695 -1 568 90 1053 333 1446 724 396 396 637 874 731 1455 21 130 24 518 4 658 -66 482 -221 868 -499 1240 -99 132 -337 376 -462 472 -525 404 -1156 592 -1800 537z m1350 -1479 l0 -290 -825 0 -825 0 0 -245 0 -245 825 0 825 0 0 -290 0 -290 -825 0 -825 0 0 -245 0 -245 825 0 825 0 0 -290 0 -290 -1115 0 -1115 0 0 1360 0 1360 1115 0 1115 0 0 -290z" transform="translate(0.000000,512.000000) scale(0.100000,-0.100000)"/></g></svg>